<?xml version="1.0" standalone="no"?>
<!DOCTYPE svg PUBLIC "-//W3C//DTD SVG 20010904//EN"
 "http://www.w3.org/TR/2001/REC-SVG-20010904/DTD/svg10.dtd">
<svg version="1.0" xmlns="http://www.w3.org/2000/svg"
 width="600.000000pt" height="600.000000pt" viewBox="0 0 600.000000 600.000000"
 preserveAspectRatio="xMidYMid meet">
<metadata>
Created by potrace 1.11, written by Peter Selinger 2001-2013
</metadata>
<g transform="translate(0.000000,600.000000) scale(0.100000,-0.100000)"
fill="#000000" stroke="none">
<path d="M238 5172 l-28 -3 0 -740 0 -739 220 0 220 0 1 23 c0 12 2 105 2 207
l2 185 106 3 105 3 115 -210 114 -211 243 0 242 0 -19 38 c-11 20 -67 120
-125 222 -58 101 -106 187 -106 191 0 4 14 12 30 19 73 30 146 153 166 280 13
86 6 384 -11 451 -29 112 -83 187 -166 229 -94 48 -136 52 -624 54 -253 0
-472 0 -487 -2z m830 -382 c20 -19 22 -30 22 -149 0 -176 14 -166 -239 -167
l-198 -2 0 169 0 169 197 0 c184 0 198 -1 218 -20z"/>
<path d="M1550 5168 c0 -4 37 -80 83 -168 45 -88 111 -217 148 -288 36 -70
122 -238 192 -373 l127 -247 0 -201 0 -201 220 0 c121 0 220 3 221 8 0 4 2 97
3 207 1 196 2 201 27 245 15 25 79 149 144 275 131 256 263 512 336 653 l48
92 -27 1 c-92 3 -443 1 -447 -2 -4 -5 -221 -449 -275 -564 l-29 -60 -84 175
c-212 440 -217 450 -235 451 -103 5 -452 2 -452 -3z"/>
<path d="M3399 5169 c-9 -5 -138 -334 -139 -352 0 -4 -9 -26 -19 -50 -11 -23
-29 -69 -40 -102 -12 -33 -26 -69 -31 -80 -5 -11 -74 -193 -154 -405 -79 -212
-154 -409 -165 -438 l-21 -52 241 2 241 3 45 123 45 122 221 -2 222 -3 44
-122 43 -123 240 0 c225 0 240 1 233 18 -4 9 -44 116 -90 237 -46 121 -146
387 -223 590 -77 204 -162 426 -187 495 -26 69 -51 129 -56 134 -9 10 -435 15
-450 5z m274 -738 c26 -76 47 -140 47 -143 0 -3 -45 -5 -99 -5 l-99 0 13 41
c40 129 81 246 86 246 3 0 26 -62 52 -139z"/>
<path d="M4518 5172 l-28 -3 0 -740 0 -739 220 0 220 0 1 23 c0 12 1 174 1
361 1 186 5 332 9 325 5 -8 97 -169 206 -359 l198 -345 223 -3 c122 -1 222 1
223 5 0 5 1 338 2 741 l2 732 -22 1 c-13 0 -112 1 -220 2 l-198 0 -5 -359 -5
-359 -34 60 c-19 33 -44 78 -56 100 -39 71 -297 519 -311 539 -12 18 -28 19
-206 20 -106 1 -205 0 -220 -2z"/>
<path d="M320 2012 l0 -743 518 3 c510 3 518 4 573 26 118 47 177 112 211 232
21 73 25 198 9 276 -21 104 -111 244 -158 244 -9 0 -2 15 20 43 64 79 88 151
89 267 0 166 -72 297 -192 351 -83 37 -144 42 -613 43 l-457 1 0 -743z m794
357 c22 -17 26 -28 26 -74 0 -37 -6 -60 -19 -76 -19 -23 -23 -24 -189 -25
l-169 -1 1 98 0 99 162 0 c148 0 163 -2 188 -21z m50 -550 c33 -16 47 -82 30
-146 -9 -34 -50 -40 -249 -39 l-180 1 -1 98 -1 97 188 0 c118 0 197 -4 213
-11z"/>
<path d="M1830 2752 c-7 -3 -10 -259 -10 -743 l0 -739 595 0 c522 0 595 2 596
15 1 19 1 275 0 318 l-1 32 -372 0 -373 0 -1 103 -1 102 294 0 c188 0 293 4
294 10 5 51 2 334 -3 343 -4 7 -102 10 -295 11 l-288 1 0 90 0 90 374 5 374 5
0 145 c-1 80 -2 161 -2 180 l-1 35 -585 0 c-322 0 -590 -1 -595 -3z"/>
<path d="M3530 2752 c-226 -16 -333 -97 -387 -293 -4 -13 -8 -211 -10 -440 -4
-349 -2 -427 11 -483 36 -153 110 -230 261 -270 50 -13 99 -15 290 -11 127 3
253 7 280 9 28 3 84 8 125 11 188 14 225 17 229 21 3 3 5 268 2 331 -1 20 -5
22 -33 18 -18 -2 -69 -7 -113 -9 -44 -3 -125 -8 -180 -11 -55 -3 -167 -8 -248
-10 -132 -3 -151 -1 -166 14 -16 16 -18 47 -17 369 1 323 2 353 19 369 16 16
49 18 379 23 l361 5 1 168 c1 93 -2 174 -6 180 -5 9 -687 17 -798 9z"/>
<path d="M4507 2752 c-16 -3 -17 -58 -17 -743 l0 -739 220 0 c203 0 220 1 221
18 0 9 1 137 1 285 l1 267 57 0 57 0 124 -227 c68 -125 137 -254 154 -285 l30
-58 238 0 237 0 -35 65 c-19 36 -84 154 -143 263 -60 108 -126 229 -147 267
-20 39 -48 89 -62 113 l-24 43 137 242 c76 133 168 296 206 361 37 66 68 122
68 125 0 7 -469 6 -473 0 -2 -2 -70 -123 -152 -269 -82 -146 -153 -268 -158
-271 -5 -3 -32 -6 -60 -5 l-52 1 -2 250 c-1 138 -2 261 -2 275 l-1 25 -203 0
c-112 0 -211 -1 -220 -3z"/>
</g>
</svg>
