<?xml version="1.0" standalone="no"?>
<!DOCTYPE svg PUBLIC "-//W3C//DTD SVG 20010904//EN"
 "http://www.w3.org/TR/2001/REC-SVG-20010904/DTD/svg10.dtd">
<svg version="1.0" xmlns="http://www.w3.org/2000/svg"
 width="600.000000pt" height="600.000000pt" viewBox="0 0 600.000000 600.000000"
 preserveAspectRatio="xMidYMid meet">
<metadata>
Created by potrace 1.11, written by Peter Selinger 2001-2013
</metadata>
<g transform="translate(0.000000,600.000000) scale(0.100000,-0.100000)"
fill="#000000" stroke="none">
<path d="M320 3000 l0 -1400 360 0 360 0 0 420 0 420 281 -2 280 -3 31 -55
c17 -30 44 -80 61 -110 16 -30 50 -90 73 -132 24 -43 44 -79 44 -82 0 -2 17
-35 38 -73 59 -104 100 -179 157 -283 l51 -95 393 -3 393 -2 -20 32 c-11 18
-50 87 -87 153 -38 66 -76 134 -85 150 -73 128 -147 257 -168 295 -13 25 -49
86 -78 137 -30 51 -54 98 -54 105 0 7 26 21 57 31 128 41 246 142 302 260 79
169 92 269 88 692 -2 182 -6 339 -9 350 -3 11 -9 40 -13 65 -19 124 -74 236
-171 346 -54 61 -224 142 -334 159 -25 4 -54 10 -65 13 -11 3 -440 8 -952 9
l-933 4 0 -1401z m1635 821 c55 -25 91 -64 109 -118 12 -36 15 -94 15 -289 0
-268 -5 -296 -61 -353 -57 -58 -86 -61 -555 -61 l-423 0 0 420 0 421 438 -1
c399 -1 441 -3 477 -19z"/>
<path d="M3200 3000 l0 -1401 958 4 c866 3 963 5 1022 20 139 37 214 73 303
147 34 27 104 134 130 195 48 116 62 205 61 390 -1 139 -5 184 -22 248 -19 70
-75 204 -91 217 -3 3 -19 23 -36 45 -35 48 -47 59 -105 106 -47 38 -167 99
-196 99 -13 0 -14 3 -4 15 7 8 17 15 22 15 14 0 96 58 132 94 128 126 176 252
181 466 6 242 -47 417 -162 545 -83 92 -232 158 -413 184 -36 5 -451 10 -922
10 l-858 1 0 -1400z m1504 824 c94 -32 127 -90 134 -234 6 -130 -12 -202 -60
-249 -58 -57 -92 -61 -495 -61 l-363 0 0 280 0 280 370 0 c303 -1 377 -4 414
-16z m143 -1127 c88 -48 114 -112 110 -276 -3 -125 -12 -153 -62 -204 -54 -53
-89 -57 -552 -57 l-423 0 0 281 0 280 448 -3 c404 -3 450 -5 479 -21z"/>
</g>
</svg>
